# xmcd
#
# Track frame offsets:
#   150
#   18115
#   28548
#   53320
#   68390
#   83810
#   101508
#   116823
#   127713
#   152525
#   170808
#   183290
#   203190
#   216370
#
# Disc length: 3224 seconds
#
# Revision: 0
# Processed by: cddbd v1.5.2PL0 Copyright (c) Steve Scherf et al.
# Submitted via: GXTranscoder 2.0.1939
#
DISCID=a80c960e
DTITLE=blue grass gospel projekt - wander on
DYEAR=2005
DGENRE=Bluegrass
TTITLE0=Wander On, Wary Soul
TTITLE1=A Beautiful Live
TTITLE2=The Blue Train
TTITLE3=Going Up On the Mountain
TTITLE4=My Fathers Son
TTITLE5=I am Not Finished With You Yet
TTITLE6=I have Found a Way
TTITLE7=Come Let us Go Back to God
TTITLE8=The Lights of Home
TTITLE9=Past the Point of Rescue
TTITLE10=Cherokee Shuffle
TTITLE11=Breath of the Devil
TTITLE12=Wicked Path of Sin
TTITLE13=Angeal Band
EXTD=
EXTT0=
EXTT1=
EXTT2=
EXTT3=
EXTT4=
EXTT5=
EXTT6=
EXTT7=
EXTT8=
EXTT9=
EXTT10=
EXTT11=
EXTT12=
EXTT13=
PLAYORDER=
